<?xml version="1.0" encoding="UTF-8" standalone="no"?>
<!-- Created with Inkscape (http://www.inkscape.org/) -->

<svg
   xmlns:dc="http://purl.org/dc/elements/1.1/"
   xmlns:cc="http://creativecommons.org/ns#"
   xmlns:rdf="http://www.w3.org/1999/02/22-rdf-syntax-ns#"
   xmlns:svg="http://www.w3.org/2000/svg"
   xmlns="http://www.w3.org/2000/svg"
   xmlns:sodipodi="http://sodipodi.sourceforge.net/DTD/sodipodi-0.dtd"
   xmlns:inkscape="http://www.inkscape.org/namespaces/inkscape"
   width="48px"
   height="48px"
   id="svg4362"
   version="1.1"
   inkscape:version="0.48.5 r10040"
   sodipodi:docname="logo.svg">
  <defs
     id="defs4364" />
  <sodipodi:namedview
     id="base"
     pagecolor="#ffffff"
     bordercolor="#666666"
     borderopacity="1.0"
     inkscape:pageopacity="0.0"
     inkscape:pageshadow="2"
     inkscape:zoom="5.6897594"
     inkscape:cx="-11.235831"
     inkscape:cy="3.8560006"
     inkscape:current-layer="layer1"
     showgrid="true"
     inkscape:grid-bbox="true"
     inkscape:document-units="px"
     inkscape:window-width="1360"
     inkscape:window-height="762"
     inkscape:window-x="0"
     inkscape:window-y="0"
     inkscape:window-maximized="0" />
  <metadata
     id="metadata4367">
    <rdf:RDF>
      <cc:Work
         rdf:about="">
        <dc:format>image/svg+xml</dc:format>
        <dc:type
           rdf:resource="http://purl.org/dc/dcmitype/StillImage" />
        <dc:title></dc:title>
      </cc:Work>
    </rdf:RDF>
  </metadata>
  <g
     id="layer1"
     inkscape:label="Layer 1"
     inkscape:groupmode="layer">
    <rect
       style="fill:#fffcfc;fill-opacity:1;stroke:none"
       id="rect3755"
       width="29.70249"
       height="31.108515"
       x="0"
       y="-0.1566938"
       inkscape:export-filename="/srv/gargantext/static/img/logo.png"
       inkscape:export-xdpi="53"
       inkscape:export-ydpi="53" />
    <g
       inkscape:export-ydpi="53.799999"
       inkscape:export-xdpi="53.799999"
       inkscape:export-filename="/srv/gargantext/static/img/logo.png"
       style="fill:#ff8080;fill-opacity:0.82014388"
       id="g3835"
       transform="matrix(0.2422549,0,0,0.23374214,-49.789462,-7.9055988)">
      <path
         inkscape:export-ydpi="100"
         inkscape:export-xdpi="100"
         inkscape:export-filename="/home/alexandre/projets/gargantext.py/gargantext_core/shared/LogoSimple.png"
         id="path3837"
         d="m 206.24721,35.28586 0,129.5 67.78125,0 0,-8.625 c -9.86526,-0.47262 -18.57934,-2.63259 -25.5625,-6.28125 -18.65918,-9.74237 -29.875,-28.26535 -29.875,-49.1875 0,-31.71741 21.11877,-52.8149 55.4375,-55.1875 l 0,-10.21875 -67.78125,0 z m 67.78125,10.21875 0,8.5 c 1.74191,-0.16369 3.53543,-0.28125 5.37499,-0.28125 6.91081,0 13.295,1.44116 19.6875,4.15625 l 2.40625,2.875 2.59375,14.53125 9.6875,0 0,-25.375 c -11.40283,-3.03451 -22.61727,-4.65625 -33.15625,-4.65625 -2.24526,0 -4.44959,0.10177 -6.59374,0.25 z m 0,8.5 c -23.28864,2.18852 -37.65625,18.81513 -37.65625,45.562503 0,27.600037 14.44681,45.025437 37.65625,47.812497 l 0,-93.375 z m 0,93.375 0,8.78125 c 1.36224,0.0653 2.75177,0.0937 4.15624,0.0937 10.19344,0 22.1324,-1.88915 35.78125,-5.5625 l 0,-38.1875 2.9375,-2.21875 9.5,-0.8125 0,-6.5625 -43.21875,0 0,6.5625 12.28125,0.8125 2.9375,2.21875 0,33.21875 c -6.73804,1.4374 -12.61466,2.09375 -17.625,2.09375 -2.32322,0 -4.57592,-0.17643 -6.74999,-0.4375 z"
         style="font-size:166.11251831px;font-style:normal;font-variant:normal;font-weight:normal;font-stretch:normal;text-align:center;line-height:125%;letter-spacing:0px;word-spacing:0px;writing-mode:lr-tb;text-anchor:middle;fill:#ff8080;fill-opacity:0.82014388;stroke:none;font-family:Bitstream Charter;-inkscape-font-specification:Bitstream Charter"
         inkscape:connector-curvature="0" />
      <path
         inkscape:export-ydpi="100"
         inkscape:export-xdpi="100"
         transform="translate(611.62306,-400.10238)"
         sodipodi:open="true"
         sodipodi:end="6.1660663"
         sodipodi:start="0"
         d="m -312.87112,480.17926 c 0,4.97881 -4.03612,9.01493 -9.01493,9.01493 -4.97881,0 -9.01493,-4.03612 -9.01493,-9.01493 0,-4.97881 4.03612,-9.01493 9.01493,-9.01493 4.57131,0 8.41901,3.42153 8.95317,7.96152"
         sodipodi:ry="9.0149298"
         sodipodi:rx="9.0149298"
         sodipodi:cy="480.17926"
         sodipodi:cx="-321.88605"
         id="path3839"
         style="fill:#ff8080;fill-opacity:0.82014388;stroke:none"
         sodipodi:type="arc" />
    </g>
  </g>
</svg>
