<?xml version="1.0" encoding="UTF-8" standalone="no"?>
<!-- Created with Inkscape (http://www.inkscape.org/) -->

<svg
   xmlns:dc="http://purl.org/dc/elements/1.1/"
   xmlns:cc="http://creativecommons.org/ns#"
   xmlns:rdf="http://www.w3.org/1999/02/22-rdf-syntax-ns#"
   xmlns:svg="http://www.w3.org/2000/svg"
   xmlns="http://www.w3.org/2000/svg"
   xmlns:sodipodi="http://sodipodi.sourceforge.net/DTD/sodipodi-0.dtd"
   xmlns:inkscape="http://www.inkscape.org/namespaces/inkscape"
   width="51.200001"
   height="51.200001"
   id="svg3041"
   version="1.1"
   inkscape:version="0.92.1 r15371"
   sodipodi:docname="logo_Canvas.svg">
  <defs
     id="defs3043" />
  <sodipodi:namedview
     id="base"
     pagecolor="#ffffff"
     bordercolor="#666666"
     borderopacity="1.0"
     inkscape:pageopacity="0.0"
     inkscape:pageshadow="2"
     inkscape:zoom="0.60882715"
     inkscape:cx="-1033.3801"
     inkscape:cy="-65.906285"
     inkscape:document-units="px"
     inkscape:current-layer="layer1"
     showgrid="false"
     inkscape:window-width="3194"
     inkscape:window-height="1794"
     inkscape:window-x="0"
     inkscape:window-y="0"
     inkscape:window-maximized="0"
     showborder="false" />
  <metadata
     id="metadata3046">
    <rdf:RDF>
      <cc:Work
         rdf:about="">
        <dc:format>image/svg+xml</dc:format>
        <dc:type
           rdf:resource="http://purl.org/dc/dcmitype/StillImage" />
        <dc:title />
      </cc:Work>
    </rdf:RDF>
  </metadata>
  <g
     inkscape:label="Calque 1"
     inkscape:groupmode="layer"
     id="layer1"
     transform="translate(0,-610.51966)">
    <g
       id="g4524"
       inkscape:export-xdpi="110"
       inkscape:export-ydpi="110">
      <rect
         style="fill:#ffffff;fill-opacity:1;stroke:none;stroke-width:1.06666672"
         id="rect3019-6"
         width="471.38348"
         height="341.57492"
         x="-342.60211"
         y="396.32129"
         inkscape:export-filename="/srv/gargantext/static/img/logoSmall.png"
         inkscape:export-xdpi="11.7"
         inkscape:export-ydpi="11.7" />
      <path
         inkscape:connector-curvature="0"
         style="font-style:normal;font-variant:normal;font-weight:normal;font-stretch:normal;font-size:166.11251831px;line-height:125%;font-family:'Bitstream Charter';-inkscape-font-specification:'Bitstream Charter';text-align:center;letter-spacing:0px;word-spacing:0px;writing-mode:lr-tb;text-anchor:middle;fill:#113345;fill-opacity:0.95294118;stroke:none;stroke-width:1.06666672"
         d="M -224.92286,403.25802 V 681.07709 H -82.787926 V 662.5737 c -20.687124,-1.01392 -38.960234,-5.64776 -53.603684,-13.4753 -39.12765,-20.90051 -62.64685,-60.63827 -62.64685,-105.52299 0,-68.04403 44.28534,-113.30492 116.250534,-118.39491 v -21.92248 z m 142.134934,21.92248 v 18.23524 c 3.652725,-0.35117 7.413664,-0.60339 11.271178,-0.60339 14.491734,0 27.879136,3.09176 41.284,8.9165 l 5.045824,6.1678 5.438998,31.1742 H 0.56641982 V 434.63332 C -23.344908,428.12334 -46.861206,424.64417 -68.961089,424.64417 c -4.708224,0 -9.330624,0.21832 -13.826837,0.53633 z m 0,18.23524 c -48.835474,4.69505 -78.963884,40.36449 -78.963884,97.74618 0,59.21094 30.29448,96.59404 78.963884,102.57317 z m 0,200.31935 v 18.83861 c 2.856576,0.13997 5.770346,0.20107 8.715488,0.20107 21.375285,0 46.410869,-4.05284 75.03204182,-11.93334 V 568.91697 L 7.1194545,564.15703 27.040628,562.41396 V 548.3353 h -90.628234 v 14.07866 l 25.753344,1.74307 6.159829,4.75994 v 71.26489 c -14.12944,3.0837 -26.452491,4.49177 -36.958997,4.49177 -4.871723,0 -9.595563,-0.3785 -14.154496,-0.93858 z"
         id="path3950"
         inkscape:export-filename="/srv/gargantext/static/img/logoSmall.png"
         inkscape:export-xdpi="11.7"
         inkscape:export-ydpi="11.7" />
      <path
         sodipodi:type="arc"
         style="fill:#00b8de;fill-opacity:1;stroke:none;stroke-width:1.06666672"
         id="path3952"
         sodipodi:cx="-49.847637"
         sodipodi:cy="499.34915"
         sodipodi:rx="18.903997"
         sodipodi:ry="19.339918"
         d="m -30.94364,499.34915 a 18.903997,19.339918 0 0 1 -18.350572,19.33163 18.903997,19.339918 0 0 1 -19.425019,-18.19974 18.903997,19.339918 0 0 1 17.213215,-20.39724 18.903997,19.339918 0 0 1 20.432873,17.00545"
         sodipodi:start="0"
         sodipodi:end="6.1660663"
         sodipodi:open="true"
         inkscape:export-filename="/srv/gargantext/static/img/logoSmall.png"
         inkscape:export-xdpi="11.7"
         inkscape:export-ydpi="11.7" />
      <flowRoot
         inkscape:export-ydpi="11.7"
         inkscape:export-xdpi="11.7"
         inkscape:export-filename="/srv/gargantext/static/img/logoSmall.png"
         transform="matrix(1.0893999,0,0,1.1145212,-688.15052,488.81684)"
         style="font-style:normal;font-weight:normal;line-height:0.01%;font-family:sans-serif;letter-spacing:0px;word-spacing:0px;fill:#113345;fill-opacity:0.95294118;stroke:none;"
         id="flowRoot3130"
         xml:space="preserve"><flowRegion
           style="font-family:sans-serif;fill:#113345;fill-opacity:0.95294118;"
           id="flowRegion3132"><rect
             style="font-family:sans-serif;fill:#113345;fill-opacity:0.95294118;"
             y="148.23489"
             x="327.0256"
             height="476.31992"
             width="1090.0853"
             id="rect3134" /></flowRegion><flowPara
           style="font-style:normal;font-variant:normal;font-weight:normal;font-stretch:normal;font-size:64px;line-height:1.25;font-family:Sawasdee;-inkscape-font-specification:Sawasdee;fill:#113345;fill-opacity:0.95294118;"
           id="flowPara3136">Gargan<flowSpan
   id="flowSpan3019"
   style="font-style:normal;font-variant:normal;font-weight:normal;font-stretch:normal;font-size:72px;font-family:Courier;-inkscape-font-specification:Courier;fill:#113345;fill-opacity:0.95294118;">text</flowSpan></flowPara></flowRoot>    </g>
    <flowRoot
       xml:space="preserve"
       id="flowRoot3138"
       style="font-style:normal;font-weight:normal;line-height:0.01%;font-family:sans-serif;letter-spacing:0px;word-spacing:0px;fill:#000000;fill-opacity:1;stroke:none;stroke-width:1px;stroke-linecap:butt;stroke-linejoin:miter;stroke-opacity:1"
       inkscape:export-filename="/srv/gargantext/static/img/logoSmall.png"
       inkscape:export-xdpi="11.7"
       inkscape:export-ydpi="11.7"
       transform="matrix(1.0893999,0,0,1.1145212,-445.40181,-327.15242)"><flowRegion
         id="flowRegion3140"
         style="font-family:sans-serif"><rect
           id="rect3142"
           width="127.96654"
           height="37.916012"
           x="338.87436"
           y="77.142372"
           style="font-family:sans-serif" /></flowRegion><flowPara
         id="flowPara3144"
         style="font-size:12px;line-height:1.25;font-family:sans-serif"> </flowPara></flowRoot>    <flowRoot
       xml:space="preserve"
       id="flowRoot3021"
       style="font-style:normal;font-weight:normal;line-height:0.01%;font-family:sans-serif;letter-spacing:0px;word-spacing:0px;fill:#000000;fill-opacity:1;stroke:none;stroke-width:1px;stroke-linecap:butt;stroke-linejoin:miter;stroke-opacity:1"
       inkscape:export-filename="/srv/gargantext/static/img/logoSmall.png"
       inkscape:export-xdpi="11.7"
       inkscape:export-ydpi="11.7"
       transform="matrix(1.0893999,0,0,1.1145212,-445.40181,-327.15242)"><flowRegion
         id="flowRegion3023"
         style="font-family:sans-serif"><rect
           id="rect3025"
           width="3.9310031"
           height="24.568769"
           x="739.02856"
           y="423.98322"
           style="font-family:sans-serif" /></flowRegion><flowPara
         id="flowPara3027"
         style="font-size:12px;line-height:1.25;font-family:sans-serif"> </flowPara></flowRoot>    <g
       id="g4514"
       inkscape:export-xdpi="10"
       inkscape:export-ydpi="10">
      <rect
         inkscape:export-ydpi="10"
         inkscape:export-xdpi="10"
         inkscape:export-filename="/srv/gargantext/static/img/logoSmall.png"
         y="765.61249"
         x="-249.746"
         height="304.78287"
         width="285.67123"
         id="rect4149"
         style="fill:#ffffff;fill-opacity:1;stroke:none;stroke-width:1.06666672" />
      <path
         inkscape:export-ydpi="10"
         inkscape:export-xdpi="10"
         inkscape:export-filename="/srv/gargantext/static/img/logoSmall.png"
         id="path4151"
         d="m -233.68287,779.55722 v 277.81908 h 142.134932 v -18.5034 c -20.687122,-1.0139 -38.960232,-5.6478 -53.603682,-13.4753 -39.12765,-20.9005 -62.64685,-60.63827 -62.64685,-105.52299 0,-68.04403 44.28534,-113.30492 116.250532,-118.39491 v -21.92248 z m 142.134932,21.92248 v 18.23524 c 3.652725,-0.35117 7.413664,-0.60339 11.271179,-0.60339 14.491733,0 27.879136,3.09176 41.284,8.9165 l 5.045824,6.1678 5.438997,31.1742 h 20.3143456 v -54.43753 c -23.9113266,-6.50998 -47.4276256,-9.98915 -69.5275086,-9.98915 -4.708224,0 -9.330624,0.21832 -13.826837,0.53633 z m 0,18.23524 c -48.835472,4.69505 -78.963882,40.36449 -78.963882,97.74618 0,59.21094 30.29448,96.59408 78.963882,102.57318 z m 0,200.31936 v 18.8386 c 2.856576,0.14 5.770347,0.2011 8.715488,0.2011 21.375285,0 46.410869,-4.0529 75.0320416,-11.9334 v -81.92443 l 6.1598506,-4.75994 19.9211748,-1.74307 V 924.6345 h -90.628235 v 14.07866 l 25.753344,1.74307 6.159829,4.75994 v 71.26493 c -14.12944,3.0837 -26.45249,4.4917 -36.958997,4.4917 -4.871723,0 -9.595563,-0.3785 -14.154496,-0.9385 z"
         style="font-style:normal;font-variant:normal;font-weight:normal;font-stretch:normal;font-size:166.11251831px;line-height:125%;font-family:'Bitstream Charter';-inkscape-font-specification:'Bitstream Charter';text-align:center;letter-spacing:0px;word-spacing:0px;writing-mode:lr-tb;text-anchor:middle;fill:#113345;fill-opacity:0.95114005;stroke:none;stroke-width:1.06666672"
         inkscape:connector-curvature="0" />
      <path
         inkscape:export-ydpi="10"
         inkscape:export-xdpi="10"
         inkscape:export-filename="/srv/gargantext/static/img/logoSmall.png"
         sodipodi:open="true"
         sodipodi:end="6.1660663"
         sodipodi:start="0"
         d="m -39.703653,875.64838 a 18.903997,19.339918 0 0 1 -18.350572,19.33163 18.903997,19.339918 0 0 1 -19.425019,-18.19974 18.903997,19.339918 0 0 1 17.213215,-20.39725 18.903997,19.339918 0 0 1 20.432872,17.00546"
         sodipodi:ry="19.339918"
         sodipodi:rx="18.903997"
         sodipodi:cy="875.64838"
         sodipodi:cx="-58.607651"
         id="path4153"
         style="fill:#00b8de;fill-opacity:1;stroke:none;stroke-width:1.06666672"
         sodipodi:type="arc" />
    </g>
    <flowRoot
       transform="matrix(1.0893999,0,0,1.1145212,-454.16182,51.280113)"
       inkscape:export-ydpi="11.7"
       inkscape:export-xdpi="11.7"
       inkscape:export-filename="/srv/gargantext/static/img/logoSmall.png"
       style="font-style:normal;font-weight:normal;line-height:0.01%;font-family:sans-serif;letter-spacing:0px;word-spacing:0px;fill:#000000;fill-opacity:1;stroke:none;stroke-width:1px;stroke-linecap:butt;stroke-linejoin:miter;stroke-opacity:1"
       id="flowRoot4165"
       xml:space="preserve"><flowRegion
         id="flowRegion4167"
         style="font-family:sans-serif"><rect
           y="77.142372"
           x="338.87436"
           height="37.916012"
           width="127.96654"
           id="rect4169"
           style="font-family:sans-serif" /></flowRegion><flowPara
         id="flowPara4171"
         style="font-size:12px;line-height:1.25;font-family:sans-serif"> </flowPara></flowRoot>    <flowRoot
       transform="matrix(1.0893999,0,0,1.1145212,-454.16182,51.280113)"
       inkscape:export-ydpi="11.7"
       inkscape:export-xdpi="11.7"
       inkscape:export-filename="/srv/gargantext/static/img/logoSmall.png"
       style="font-style:normal;font-weight:normal;line-height:0.01%;font-family:sans-serif;letter-spacing:0px;word-spacing:0px;fill:#000000;fill-opacity:1;stroke:none;stroke-width:1px;stroke-linecap:butt;stroke-linejoin:miter;stroke-opacity:1"
       id="flowRoot4173"
       xml:space="preserve"><flowRegion
         id="flowRegion4175"
         style="font-family:sans-serif"><rect
           y="423.98322"
           x="739.02856"
           height="24.568769"
           width="3.9310031"
           id="rect4177"
           style="font-family:sans-serif" /></flowRegion><flowPara
         id="flowPara4179"
         style="font-size:12px;line-height:1.25;font-family:sans-serif"> </flowPara></flowRoot>    <text
       xml:space="preserve"
       style="font-style:normal;font-variant:normal;font-weight:normal;font-stretch:normal;font-size:12.80000019px;line-height:0%;font-family:Courier;-inkscape-font-specification:Courier;text-align:center;letter-spacing:0px;word-spacing:0px;writing-mode:lr-tb;text-anchor:middle;fill:#000000;fill-opacity:1;stroke:none;stroke-width:1.06666672px;stroke-linecap:butt;stroke-linejoin:miter;stroke-opacity:1"
       x="-917.2171"
       y="523.55103"
       id="text4181"
       transform="scale(0.55800284,1.7921056)"><tspan
         sodipodi:role="line"
         id="tspan4183"
         x="-917.2171"
         y="523.55103"
         style="font-size:62.97999954px;line-height:1.25;stroke-width:1.06666672px">Logo Home</tspan></text>
  </g>
</svg>
